<svg width="22" height="20" viewBox="0 0 22 20" fill="none" xmlns="http://www.w3.org/2000/svg">
<path d="M19.9375 3.60156H16.4844L15.6617 1.29609C15.6049 1.13834 15.5007 1.00197 15.3635 0.905631C15.2262 0.809288 15.0626 0.757665 14.8949 0.757813H7.10508C6.7623 0.757813 6.45508 0.973633 6.34082 1.29609L5.51562 3.60156H2.0625C0.940234 3.60156 0.03125 4.51055 0.03125 5.63281V17.2109C0.03125 18.3332 0.940234 19.2422 2.0625 19.2422H19.9375C21.0598 19.2422 21.9688 18.3332 21.9688 17.2109V5.63281C21.9688 4.51055 21.0598 3.60156 19.9375 3.60156ZM11 15.1797C8.75547 15.1797 6.9375 13.3617 6.9375 11.1172C6.9375 8.87266 8.75547 7.05469 11 7.05469C13.2445 7.05469 15.0625 8.87266 15.0625 11.1172C15.0625 13.3617 13.2445 15.1797 11 15.1797ZM8.5625 11.1172C8.5625 11.7637 8.81931 12.3836 9.27643 12.8408C9.73355 13.2979 10.3535 13.5547 11 13.5547C11.6465 13.5547 12.2665 13.2979 12.7236 12.8408C13.1807 12.3836 13.4375 11.7637 13.4375 11.1172C13.4375 10.4707 13.1807 9.85073 12.7236 9.39361C12.2665 8.93649 11.6465 8.67969 11 8.67969C10.3535 8.67969 9.73355 8.93649 9.27643 9.39361C8.81931 9.85073 8.5625 10.4707 8.5625 11.1172Z" fill="#AA7D54"/>
</svg>
