<svg width="20" height="21" viewBox="0 0 20 21" fill="none" xmlns="http://www.w3.org/2000/svg">
<path d="M12.9833 10.3633C12.9833 12.0733 11.6499 13.4551 9.99993 13.4551C8.34993 13.4551 7.0166 12.0733 7.0166 10.3633C7.0166 8.6533 8.34993 7.27148 9.99993 7.27148C11.6499 7.27148 12.9833 8.6533 12.9833 10.3633Z" stroke="#292D32" stroke-width="1.5" stroke-linecap="round" stroke-linejoin="round"/>
<path d="M9.99987 17.5061C12.9415 17.5061 15.6832 15.7097 17.5915 12.6006C18.3415 11.3829 18.3415 9.33607 17.5915 8.11834C15.6832 5.00925 12.9415 3.21289 9.99987 3.21289C7.0582 3.21289 4.31654 5.00925 2.4082 8.11834C1.6582 9.33607 1.6582 11.3829 2.4082 12.6006C4.31654 15.7097 7.0582 17.5061 9.99987 17.5061Z" stroke="#292D32" stroke-width="1.5" stroke-linecap="round" stroke-linejoin="round"/>
</svg>
