<svg width="179" height="54" viewBox="0 0 179 54" fill="none" xmlns="http://www.w3.org/2000/svg">
<path d="M43.88 17.48L42.44 25.592H38.744L33.944 53H24.152L28.952 25.592H24.488L22.856 35.096C22.28 38.552 20.92 41.32 18.776 43.4C16.664 45.48 13.768 46.52 10.088 46.52C7.048 46.52 4.616 45.8 2.792 44.36C0.968 42.92 0.0560001 40.824 0.0560001 38.072C0.0560001 37.368 0.136 36.536 0.296 35.576C0.424 34.872 0.536 34.344 0.632 33.992H10.088L9.8 35.528C9.736 35.816 9.704 36.2 9.704 36.68C9.704 37.704 10.12 38.216 10.952 38.216C12.008 38.216 12.68 37.32 12.968 35.528L14.696 25.592H0.152L1.592 17.48H43.88ZM58.49 17.48L57.05 25.592H53.402L48.602 53H38.81L43.61 25.592H39.914L41.354 17.48H45.77L44.234 16.616C43.242 16.04 42.522 15.656 42.074 15.464C41.626 15.272 41.098 15.16 40.49 15.128C39.914 15.064 38.81 15.032 37.178 15.032H34.25L35.306 9.032H37.994C39.626 9.032 40.81 9.064 41.546 9.128C42.314 9.192 43.002 9.352 43.61 9.608C44.25 9.864 44.938 10.296 45.674 10.904C45.034 9.56 44.362 8.6 43.658 8.024C42.986 7.416 42.314 7.048 41.642 6.92C40.97 6.76 40.042 6.68 38.858 6.68H35.738L36.794 0.631996H39.674C42.586 0.631996 44.698 0.935997 46.01 1.544C47.354 2.152 48.586 3.544 49.706 5.72C50.826 7.896 52.362 11.816 54.314 17.48H58.49ZM69.1921 44.936C69.9281 44.936 70.4881 44.68 70.8721 44.168C71.2881 43.656 71.5921 42.872 71.7841 41.816H81.2881C80.8401 45.496 79.5281 48.328 77.3521 50.312C75.2081 52.296 72.2321 53.288 68.4241 53.288C65.0641 53.288 62.3921 52.472 60.4081 50.84C58.4241 49.208 57.4321 46.968 57.4321 44.12C57.4321 43.448 57.5121 42.664 57.6721 41.768L59.4001 32.024H65.8801C68.1201 32.024 70.0081 31.72 71.5441 31.112C73.0801 30.472 74.0081 29.288 74.3281 27.56C74.3601 27.432 74.3761 27.272 74.3761 27.08C74.3761 26.6 74.2641 26.216 74.0401 25.928C73.8161 25.64 73.4801 25.496 73.0321 25.496C72.2321 25.496 71.6241 25.848 71.2081 26.552C70.8241 27.224 70.6321 28.04 70.6321 29H60.8881C61.2401 25.224 62.6001 22.296 64.9681 20.216C67.3681 18.104 70.4241 17.048 74.1361 17.048C77.1121 17.048 79.5601 17.832 81.4801 19.4C83.4001 20.968 84.3601 23.144 84.3601 25.928C84.3601 26.76 84.2961 27.512 84.1681 28.184C83.4641 32.184 81.6401 35.192 78.6961 37.208C75.7521 39.192 72.2481 40.184 68.1841 40.184H67.8481L67.4641 42.344C67.4001 42.728 67.3681 43.016 67.3681 43.208C67.3681 44.36 67.9761 44.936 69.1921 44.936ZM102.312 17.48L100.872 25.592H97.2241L92.3761 53H82.4401L88.7281 17.48H102.312ZM98.7043 53L103.504 25.592H99.8083L101.248 17.48H118.384L116.944 25.592H113.296L108.496 53H98.7043ZM153.422 25.592L152.606 30.296C153.726 31.128 154.59 32.216 155.198 33.56C155.838 34.872 156.158 36.408 156.158 38.168C156.158 39.192 156.078 40.12 155.918 40.952C155.47 43.384 154.574 45.512 153.23 47.336C151.886 49.128 150.142 50.504 147.998 51.464C145.854 52.392 143.422 52.824 140.702 52.76L139.022 52.664L140.558 44.216C140.878 44.28 141.278 44.312 141.758 44.312C142.782 44.312 143.694 43.992 144.494 43.352C145.294 42.68 145.79 41.72 145.982 40.472C146.046 40.088 146.078 39.8 146.078 39.608C146.078 38.808 145.854 38.184 145.406 37.736C144.958 37.256 144.334 37.016 143.534 37.016C142.478 37.016 141.646 37.384 141.038 38.12C140.43 38.824 140.03 39.688 139.838 40.712L139.598 42.104H131.534L131.774 40.712C131.838 40.264 131.87 39.912 131.87 39.656C131.87 38.888 131.678 38.264 131.294 37.784C130.91 37.272 130.286 37.016 129.422 37.016C128.462 37.016 127.646 37.336 126.974 37.976C126.334 38.584 125.918 39.416 125.726 40.472C125.662 40.92 125.63 41.224 125.63 41.384C125.63 42.344 125.902 43.08 126.446 43.592C127.022 44.072 127.822 44.312 128.846 44.312C129.038 44.312 129.39 44.28 129.902 44.216L128.366 52.712C127.918 52.744 127.438 52.76 126.926 52.76C123.342 52.76 120.574 51.832 118.622 49.976C116.67 48.12 115.694 45.672 115.694 42.632C115.694 41.608 115.774 40.696 115.934 39.896C116.382 37.24 117.278 35.048 118.622 33.32C119.998 31.592 121.598 30.344 123.422 29.576C125.278 28.808 127.198 28.424 129.182 28.424C131.23 28.424 132.91 28.84 134.222 29.672C135.534 30.472 136.462 31.56 137.006 32.936H137.15C138.654 30.824 140.686 29.448 143.246 28.808L143.822 25.592H115.886L117.326 17.48H162.542L161.102 25.592H153.422ZM158.939 53L163.739 25.592H160.043L161.483 17.48H178.619L177.179 25.592H173.531L168.731 53H158.939Z" fill="white"/>
</svg>
