<svg width="24" height="25" viewBox="0 0 24 25" fill="none" xmlns="http://www.w3.org/2000/svg">
<path fill-rule="evenodd" clip-rule="evenodd" d="M14.1002 3.36C14.1002 2.88 13.7102 2.5 13.2402 2.5C7.36023 2.5 3.24023 6.62 3.24023 12.51C3.24023 18.4 7.35023 22.51 13.2402 22.51C13.7202 22.51 14.1002 22.12 14.1002 21.65V13.3099H18.2009L16.6409 14.8699C16.3509 15.1599 16.3509 15.6399 16.6409 15.9299C16.7909 16.0799 16.9809 16.1499 17.1709 16.1499C17.3609 16.1499 17.5509 16.0799 17.7009 15.9299L20.5409 13.0799C20.8309 12.7999 20.8309 12.3299 20.5409 12.0399L17.7009 9.18991C17.4109 8.89991 16.9309 8.89991 16.6409 9.18991C16.3509 9.47991 16.3509 9.95991 16.6409 10.2499L18.2009 11.8099H14.1002V3.36ZM14.1002 11.8099H8.63086C8.22086 11.8099 7.88086 12.1499 7.88086 12.5599C7.88086 12.9699 8.22086 13.3099 8.63086 13.3099H14.1002V11.8099Z" fill="#292D32"/>
</svg>
