<svg width="36" height="36" viewBox="0 0 36 36" fill="none" xmlns="http://www.w3.org/2000/svg">
<rect x="0.5" y="0.5" width="35" height="35" rx="17.5" stroke="black"/>
<path opacity="0.4" d="M18 8C15.38 8 13.25 10.13 13.25 12.75C13.25 15.32 15.26 17.4 17.88 17.49C17.96 17.48 18.04 17.48 18.1 17.49C18.12 17.49 18.13 17.49 18.15 17.49C18.16 17.49 18.16 17.49 18.17 17.49C20.73 17.4 22.74 15.32 22.75 12.75C22.75 10.13 20.62 8 18 8Z" fill="#292D32"/>
<path d="M23.08 20.1489C20.29 18.2889 15.74 18.2889 12.93 20.1489C11.66 20.9989 10.96 22.1489 10.96 23.3789C10.96 24.6089 11.66 25.7489 12.92 26.5889C14.32 27.5289 16.16 27.9989 18 27.9989C19.84 27.9989 21.68 27.5289 23.08 26.5889C24.34 25.7389 25.04 24.5989 25.04 23.3589C25.03 22.1289 24.34 20.9889 23.08 20.1489Z" fill="#292D32"/>
</svg>
