<svg width="20" height="22" viewBox="0 0 20 22" fill="none" xmlns="http://www.w3.org/2000/svg">
<path d="M4.17 16.9995C4.3766 16.414 4.75974 15.907 5.2666 15.5483C5.77346 15.1897 6.37909 14.9971 7 14.9971C7.62091 14.9971 8.22654 15.1897 8.7334 15.5483C9.24026 15.907 9.6234 16.414 9.83 16.9995H20V18.9995H9.83C9.6234 19.5851 9.24026 20.0921 8.7334 20.4507C8.22654 20.8094 7.62091 21.002 7 21.002C6.37909 21.002 5.77346 20.8094 5.2666 20.4507C4.75974 20.0921 4.3766 19.5851 4.17 18.9995H0V16.9995H4.17ZM10.17 9.99952C10.3766 9.41399 10.7597 8.90695 11.2666 8.54831C11.7735 8.18967 12.3791 7.99707 13 7.99707C13.6209 7.99707 14.2265 8.18967 14.7334 8.54831C15.2403 8.90695 15.6234 9.41399 15.83 9.99952H20V11.9995H15.83C15.6234 12.5851 15.2403 13.0921 14.7334 13.4507C14.2265 13.8094 13.6209 14.002 13 14.002C12.3791 14.002 11.7735 13.8094 11.2666 13.4507C10.7597 13.0921 10.3766 12.5851 10.17 11.9995H0V9.99952H10.17ZM4.17 2.99952C4.3766 2.41399 4.75974 1.90695 5.2666 1.54831C5.77346 1.18967 6.37909 0.99707 7 0.99707C7.62091 0.99707 8.22654 1.18967 8.7334 1.54831C9.24026 1.90695 9.6234 2.41399 9.83 2.99952H20V4.99952H9.83C9.6234 5.58505 9.24026 6.09209 8.7334 6.45073C8.22654 6.80938 7.62091 7.00197 7 7.00197C6.37909 7.00197 5.77346 6.80938 5.2666 6.45073C4.75974 6.09209 4.3766 5.58505 4.17 4.99952H0V2.99952H4.17ZM7 4.99952C7.26522 4.99952 7.51957 4.89416 7.70711 4.70663C7.89464 4.51909 8 4.26474 8 3.99952C8 3.7343 7.89464 3.47995 7.70711 3.29241C7.51957 3.10488 7.26522 2.99952 7 2.99952C6.73478 2.99952 6.48043 3.10488 6.29289 3.29241C6.10536 3.47995 6 3.7343 6 3.99952C6 4.26474 6.10536 4.51909 6.29289 4.70663C6.48043 4.89416 6.73478 4.99952 7 4.99952ZM13 11.9995C13.2652 11.9995 13.5196 11.8942 13.7071 11.7066C13.8946 11.5191 14 11.2647 14 10.9995C14 10.7343 13.8946 10.48 13.7071 10.2924C13.5196 10.1049 13.2652 9.99952 13 9.99952C12.7348 9.99952 12.4804 10.1049 12.2929 10.2924C12.1054 10.48 12 10.7343 12 10.9995C12 11.2647 12.1054 11.5191 12.2929 11.7066C12.4804 11.8942 12.7348 11.9995 13 11.9995ZM7 18.9995C7.26522 18.9995 7.51957 18.8942 7.70711 18.7066C7.89464 18.5191 8 18.2647 8 17.9995C8 17.7343 7.89464 17.4799 7.70711 17.2924C7.51957 17.1049 7.26522 16.9995 7 16.9995C6.73478 16.9995 6.48043 17.1049 6.29289 17.2924C6.10536 17.4799 6 17.7343 6 17.9995C6 18.2647 6.10536 18.5191 6.29289 18.7066C6.48043 18.8942 6.73478 18.9995 7 18.9995Z" fill="white"/>
</svg>
